<svg width="187" height="52" viewBox="0 0 187 52" fill="none" xmlns="http://www.w3.org/2000/svg">
<path d="M117.974 33.344C117.974 29.6747 118.657 26.4534 120.022 23.68C121.43 20.9067 123.329 18.7734 125.718 17.28C128.107 15.7867 130.774 15.04 133.718 15.04C136.235 15.04 138.433 15.552 140.31 16.576C141.081 16.9873 141.78 17.4502 142.407 17.9647C143.186 18.6046 144.726 18.0833 144.726 17.075V16.552C144.726 15.9998 145.174 15.552 145.726 15.552H154.67C155.222 15.552 155.67 15.9998 155.67 16.552V50.264C155.67 50.8163 155.222 51.264 154.67 51.264H145.726C145.174 51.264 144.726 50.8163 144.726 50.264V49.621C144.726 48.6223 143.239 48.1135 142.472 48.7532C141.808 49.3071 141.066 49.8028 140.246 50.24C138.369 51.264 136.171 51.776 133.654 51.776C130.753 51.776 128.107 51.0294 125.718 49.536C123.329 48 121.43 45.8454 120.022 43.072C118.657 40.256 117.974 37.0134 117.974 33.344ZM144.726 33.408C144.726 30.6774 143.958 28.5227 142.422 26.944C140.929 25.3654 139.094 24.576 136.918 24.576C134.742 24.576 132.886 25.3654 131.35 26.944C129.857 28.48 129.11 30.6134 129.11 33.344C129.11 36.0747 129.857 38.2507 131.35 39.872C132.886 41.4507 134.742 42.24 136.918 42.24C139.094 42.24 140.929 41.4507 142.422 39.872C143.958 38.2934 144.726 36.1387 144.726 33.408Z" fill="#0F0F0F"/>
<path d="M101.168 15.168C105.605 15.168 109.125 16.512 111.728 19.2C114.373 21.888 115.696 25.6213 115.696 30.4V50.264C115.696 50.8163 115.248 51.264 114.696 51.264H105.816C105.264 51.264 104.816 50.8163 104.816 50.264V31.872C104.816 29.568 104.197 27.7973 102.96 26.56C101.765 25.28 100.101 24.64 97.9681 24.64C95.8348 24.64 94.1494 25.28 92.9121 26.56C91.7174 27.7973 91.1201 29.568 91.1201 31.872V50.264C91.1201 50.8163 90.6724 51.264 90.1201 51.264H81.2401C80.6878 51.264 80.2401 50.8163 80.2401 50.264V31.872C80.2401 29.568 79.6214 27.7973 78.3841 26.56C77.1894 25.28 75.5254 24.64 73.3921 24.64C71.2588 24.64 69.5734 25.28 68.3361 26.56C67.1414 27.7973 66.5441 29.568 66.5441 31.872V50.264C66.5441 50.8163 66.0964 51.264 65.5441 51.264H56.6001C56.0478 51.264 55.6001 50.8163 55.6001 50.264V16.552C55.6001 15.9997 56.0478 15.552 56.6001 15.552H65.5441C66.0964 15.552 66.5441 15.9997 66.5441 16.552V17.0089C66.5441 17.9722 67.893 18.4706 68.6549 17.881C69.3308 17.358 70.0779 16.9016 70.8961 16.512C72.6881 15.616 74.7148 15.168 76.9761 15.168C79.6641 15.168 82.0534 15.744 84.1441 16.896C85.7802 17.7795 87.1403 18.9516 88.2243 20.4123C88.6762 21.0213 89.6375 21.0469 90.1163 20.4588C91.218 19.1059 92.5766 17.961 94.1921 17.024C96.3254 15.7866 98.6508 15.168 101.168 15.168Z" fill="#0F0F0F"/>
<path d="M45.4289 11.84C43.5089 11.84 41.9302 11.2853 40.6929 10.176C39.4982 9.024 38.9009 7.616 38.9009 5.952C38.9009 4.24534 39.4982 2.83733 40.6929 1.728C41.9302 0.576 43.5089 0 45.4289 0C47.3062 0 48.8422 0.576 50.0369 1.728C51.2742 2.83733 51.8929 4.24534 51.8929 5.952C51.8929 7.616 51.2742 9.024 50.0369 10.176C48.8422 11.2853 47.3062 11.84 45.4289 11.84ZM49.8689 15.552C50.4212 15.552 50.8689 15.9997 50.8689 16.552V50.264C50.8689 50.8163 50.4212 51.264 49.8689 51.264H40.9249C40.3726 51.264 39.9249 50.8163 39.9249 50.264V16.552C39.9249 15.9997 40.3726 15.552 40.9249 15.552H49.8689Z" fill="#0F0F0F"/>
<path d="M21.76 15.168C25.9413 15.168 29.2693 16.5333 31.744 19.264C34.2613 21.952 35.52 25.664 35.52 30.4V50.264C35.52 50.8163 35.0723 51.264 34.52 51.264H25.64C25.0877 51.264 24.64 50.8163 24.64 50.264V31.872C24.64 29.4826 24.0213 27.6266 22.784 26.304C21.5467 24.9813 19.8827 24.32 17.792 24.32C15.7013 24.32 14.0373 24.9813 12.8 26.304C11.5627 27.6266 10.944 29.4826 10.944 31.872V50.264C10.944 50.8163 10.4963 51.264 9.944 51.264H1C0.447715 51.264 0 50.8163 0 50.264V16.552C0 15.9997 0.447715 15.552 1 15.552H9.944C10.4963 15.552 10.944 15.9997 10.944 16.552V17.1256C10.944 18.1024 12.3447 18.6057 13.1121 18.0014C13.8042 17.4564 14.5748 16.9813 15.424 16.576C17.3013 15.6373 19.4133 15.168 21.76 15.168Z" fill="#0F0F0F"/>
<path d="M185 3C186.105 3 187 3.89543 187 5V21L186.989 21.2041C186.887 22.2128 186.036 23 185 23H164L163.796 22.9893C162.854 22.8938 162.106 22.1457 162.011 21.2041L162 21V5C162 3.96435 162.787 3.113 163.796 3.01074L164 3H185ZM165 20H174.27C174.099 19.7056 174 19.3646 174 19V14C174 12.8954 174.895 12 176 12H183C183.365 12 183.706 12.0991 184 12.2695V6H165V20Z" fill="#0F0F0F"/>
</svg>
